<mxfile host="app.diagrams.net" modified="2023-04-12T15:00:08.626Z" agent="Mozilla/5.0 (Macintosh; Intel Mac OS X 10.15; rv:109.0) Gecko/20100101 Firefox/111.0" etag="Flbeupd_fWsC4s7qV124" version="21.1.7" type="google">
  <diagram name="Pagina-1" id="2zuiLvAYl878m_oRTMRI">
    <mxGraphModel grid="1" page="1" gridSize="10" guides="1" tooltips="1" connect="1" arrows="1" fold="1" pageScale="1" pageWidth="827" pageHeight="1169" math="0" shadow="0">
      <root>
        <mxCell id="0" />
        <mxCell id="1" parent="0" />
        <mxCell id="RUL37LDbd2QCH6j5r3ev-9" value="" style="edgeStyle=orthogonalEdgeStyle;rounded=0;orthogonalLoop=1;jettySize=auto;html=1;" edge="1" parent="1" source="RUL37LDbd2QCH6j5r3ev-2" target="RUL37LDbd2QCH6j5r3ev-5">
          <mxGeometry relative="1" as="geometry" />
        </mxCell>
        <mxCell id="RUL37LDbd2QCH6j5r3ev-1" value="Start" style="ellipse;whiteSpace=wrap;html=1;" vertex="1" parent="1">
          <mxGeometry x="340" y="40" width="120" height="80" as="geometry" />
        </mxCell>
        <mxCell id="RUL37LDbd2QCH6j5r3ev-4" value="O" style="text;html=1;align=center;verticalAlign=middle;resizable=0;points=[];autosize=1;strokeColor=none;fillColor=none;" vertex="1" parent="1">
          <mxGeometry x="440" y="280" width="30" height="30" as="geometry" />
        </mxCell>
        <mxCell id="RUL37LDbd2QCH6j5r3ev-11" value="" style="edgeStyle=orthogonalEdgeStyle;rounded=0;orthogonalLoop=1;jettySize=auto;html=1;" edge="1" parent="1" source="RUL37LDbd2QCH6j5r3ev-3" target="RUL37LDbd2QCH6j5r3ev-6">
          <mxGeometry relative="1" as="geometry" />
        </mxCell>
        <mxCell id="RUL37LDbd2QCH6j5r3ev-5" value="N=(int)N" style="rounded=0;whiteSpace=wrap;html=1;" vertex="1" parent="1">
          <mxGeometry x="340" y="220" width="120" height="60" as="geometry" />
        </mxCell>
        <mxCell id="RUL37LDbd2QCH6j5r3ev-13" value="" style="edgeStyle=orthogonalEdgeStyle;rounded=0;orthogonalLoop=1;jettySize=auto;html=1;" edge="1" parent="1" source="RUL37LDbd2QCH6j5r3ev-6" target="RUL37LDbd2QCH6j5r3ev-7">
          <mxGeometry relative="1" as="geometry" />
        </mxCell>
        <mxCell id="RUL37LDbd2QCH6j5r3ev-6" value="int fattoriale = 1" style="rounded=0;whiteSpace=wrap;html=1;" vertex="1" parent="1">
          <mxGeometry x="340" y="380" width="120" height="60" as="geometry" />
        </mxCell>
        <mxCell id="RUL37LDbd2QCH6j5r3ev-14" value="" style="edgeStyle=orthogonalEdgeStyle;rounded=0;orthogonalLoop=1;jettySize=auto;html=1;" edge="1" parent="1" source="RUL37LDbd2QCH6j5r3ev-7" target="RUL37LDbd2QCH6j5r3ev-8">
          <mxGeometry relative="1" as="geometry" />
        </mxCell>
        <mxCell id="RUL37LDbd2QCH6j5r3ev-17" style="edgeStyle=orthogonalEdgeStyle;rounded=0;orthogonalLoop=1;jettySize=auto;html=1;" edge="1" parent="1" source="RUL37LDbd2QCH6j5r3ev-7" target="RUL37LDbd2QCH6j5r3ev-16">
          <mxGeometry relative="1" as="geometry" />
        </mxCell>
        <mxCell id="RUL37LDbd2QCH6j5r3ev-7" value="&lt;div&gt;int i=1; i&amp;lt;=N;&lt;/div&gt;&lt;div&gt;i++&lt;br&gt;&lt;/div&gt;" style="shape=hexagon;perimeter=hexagonPerimeter2;whiteSpace=wrap;html=1;fixedSize=1;" vertex="1" parent="1">
          <mxGeometry x="340" y="470" width="120" height="80" as="geometry" />
        </mxCell>
        <mxCell id="RUL37LDbd2QCH6j5r3ev-15" style="edgeStyle=orthogonalEdgeStyle;rounded=0;orthogonalLoop=1;jettySize=auto;html=1;entryX=0;entryY=0.5;entryDx=0;entryDy=0;" edge="1" parent="1" source="RUL37LDbd2QCH6j5r3ev-8" target="RUL37LDbd2QCH6j5r3ev-7">
          <mxGeometry relative="1" as="geometry">
            <Array as="points">
              <mxPoint x="250" y="610" />
              <mxPoint x="250" y="510" />
            </Array>
          </mxGeometry>
        </mxCell>
        <mxCell id="RUL37LDbd2QCH6j5r3ev-8" value="fattoriale *= i" style="rounded=0;whiteSpace=wrap;html=1;" vertex="1" parent="1">
          <mxGeometry x="340" y="584.5" width="120" height="60" as="geometry" />
        </mxCell>
        <mxCell id="RUL37LDbd2QCH6j5r3ev-10" value="" style="edgeStyle=orthogonalEdgeStyle;rounded=0;orthogonalLoop=1;jettySize=auto;html=1;" edge="1" parent="1" source="RUL37LDbd2QCH6j5r3ev-1" target="RUL37LDbd2QCH6j5r3ev-2">
          <mxGeometry relative="1" as="geometry">
            <mxPoint x="400" y="120" as="sourcePoint" />
            <mxPoint x="400" y="210" as="targetPoint" />
          </mxGeometry>
        </mxCell>
        <mxCell id="RUL37LDbd2QCH6j5r3ev-2" value="&lt;div&gt;double N = &lt;br&gt;&lt;/div&gt;&lt;div&gt;Math.random()*15+1&lt;br&gt;&lt;/div&gt;" style="rounded=0;whiteSpace=wrap;html=1;" vertex="1" parent="1">
          <mxGeometry x="340" y="140" width="120" height="60" as="geometry" />
        </mxCell>
        <mxCell id="RUL37LDbd2QCH6j5r3ev-12" value="" style="edgeStyle=orthogonalEdgeStyle;rounded=0;orthogonalLoop=1;jettySize=auto;html=1;" edge="1" parent="1" source="RUL37LDbd2QCH6j5r3ev-5" target="RUL37LDbd2QCH6j5r3ev-3">
          <mxGeometry relative="1" as="geometry">
            <mxPoint x="400" y="280" as="sourcePoint" />
            <mxPoint x="400" y="390" as="targetPoint" />
          </mxGeometry>
        </mxCell>
        <mxCell id="RUL37LDbd2QCH6j5r3ev-3" value="N" style="shape=parallelogram;perimeter=parallelogramPerimeter;whiteSpace=wrap;html=1;fixedSize=1;" vertex="1" parent="1">
          <mxGeometry x="340" y="300" width="120" height="60" as="geometry" />
        </mxCell>
        <mxCell id="RUL37LDbd2QCH6j5r3ev-20" value="" style="edgeStyle=orthogonalEdgeStyle;rounded=0;orthogonalLoop=1;jettySize=auto;html=1;" edge="1" parent="1" source="RUL37LDbd2QCH6j5r3ev-16" target="RUL37LDbd2QCH6j5r3ev-18">
          <mxGeometry relative="1" as="geometry" />
        </mxCell>
        <mxCell id="RUL37LDbd2QCH6j5r3ev-16" value="Fattoriale" style="shape=parallelogram;perimeter=parallelogramPerimeter;whiteSpace=wrap;html=1;fixedSize=1;" vertex="1" parent="1">
          <mxGeometry x="510" y="640" width="120" height="60" as="geometry" />
        </mxCell>
        <mxCell id="RUL37LDbd2QCH6j5r3ev-18" value="End" style="ellipse;whiteSpace=wrap;html=1;" vertex="1" parent="1">
          <mxGeometry x="510" y="720" width="120" height="80" as="geometry" />
        </mxCell>
        <mxCell id="RUL37LDbd2QCH6j5r3ev-19" value="O" style="text;html=1;align=center;verticalAlign=middle;resizable=0;points=[];autosize=1;strokeColor=none;fillColor=none;" vertex="1" parent="1">
          <mxGeometry x="595" y="615" width="30" height="30" as="geometry" />
        </mxCell>
      </root>
    </mxGraphModel>
  </diagram>
</mxfile>
